# xmcd CD database file
#
# Track frame offsets:
#	150
#	11310
#	21188
#	33890
#	43081
#	53792
#	62678
#	75966
#	86468
#	102264
#	110477
#	119036
#	129546
#	141294
#	149732
#	160207
#	169251
#	179041
#	190617
#	203896
#	216053
#	228802
#	238440
#	247117
#
# Disc length: 3432 seconds
#
# Revision: 0
# Processed by: cddbd v1.5.1PL0 Copyright (c) Steve Scherf et al.
# Submitted via: CDex 1.51
#
DISCID=570d6618
DTITLE=Les Paul featuring Mary Ford - Blowing the Smoke Away from a Trail of Hits
DYEAR=2000
DGENRE=Jazz
TTITLE0=Mandolino
TTITLE1=A Texas Lady
TTITLE2=Vaya Con Dios (May God Be With You)
TTITLE3=Johnny Is The Boy For Me
TTITLE4=Magic Melody
TTITLE5=Runnin' Wild
TTITLE6=Amukiriki (The Lord Willing)
TTITLE7=San Antonio Rose
TTITLE8=Cryin'
TTITLE9=Blow The Smoke Away
TTITLE10=Teresa
TTITLE11=Auctioneer (I'll Buy That Dream)
TTITLE12=I Don't Want You No More
TTITLE13=Lady Of Spain
TTITLE14=Song In Blue
TTITLE15=I'm A Fool To Care
TTITLE16=Tiger Rag
TTITLE17=Don'cha Hear Them Bells
TTITLE18=Someday, Sweetheart
TTITLE19=Hummingbird
TTITLE20=The Kangaroo
TTITLE21=How High The Moon
TTITLE22=Goodbye My Love, Goodbye
TTITLE23=The World Is Waiting For The Sunrise
EXTD=YEAR: 2000
EXTT0=
EXTT1=
EXTT2=
EXTT3=
EXTT4=
EXTT5=
EXTT6=
EXTT7=
EXTT8=
EXTT9=
EXTT10=
EXTT11=
EXTT12=
EXTT13=
EXTT14=
EXTT15=
EXTT16=
EXTT17=
EXTT18=
EXTT19=
EXTT20=
EXTT21=
EXTT22=
EXTT23=
PLAYORDER=
